<svg width="17" height="18" viewBox="0 0 17 18" fill="none" xmlns="http://www.w3.org/2000/svg">
<g clip-path="url(#clip0_8081_26)">
<path fill-rule="evenodd" clip-rule="evenodd" d="M12.6515 5.87512L16.9976 9.03304L12.4913 12.3064L8.14448 9.14917L12.6515 5.87512Z" fill="#F8E029"/>
<path fill-rule="evenodd" clip-rule="evenodd" d="M10.2314 2.29184L3.30946 8.99471L10.2314 15.6976C10.3605 15.8226 10.4628 15.9709 10.5327 16.1342C10.6025 16.2975 10.6384 16.4725 10.6384 16.6492C10.6384 16.826 10.6025 17.001 10.5326 17.1643C10.4628 17.3275 10.3604 17.4759 10.2313 17.6009C10.1023 17.7258 9.94905 17.825 9.78043 17.8926C9.61181 17.9602 9.43109 17.995 9.24858 17.995C9.06607 17.995 8.88535 17.9602 8.71674 17.8925C8.54813 17.8249 8.39493 17.7258 8.26588 17.6008L0.404489 9.988C0.144399 9.71864 -0.000289917 9.36365 -0.000289917 8.99489C-0.000289917 8.62612 0.144399 8.27113 0.404489 8.00178L8.26588 0.388464C8.52653 0.136061 8.88004 -0.0057373 9.24865 -0.0057373C9.61725 -0.0057373 9.97077 0.136061 10.2314 0.388464C10.4921 0.640867 10.6385 0.983199 10.6385 1.34015C10.6385 1.6971 10.4921 2.03943 10.2314 2.29184Z" fill="white"/>
</g>
<defs>
<clipPath id="clip0_8081_26">
<rect width="17" height="18" fill="white"/>
</clipPath>
</defs>
</svg>
